<svg width="54" height="49" viewBox="0 0 54 49" fill="none" xmlns="http://www.w3.org/2000/svg">
<path d="M14.6676 31.8835C14.7087 30.5998 15.4339 29.762 16.3095 28.9918C17.7462 27.7216 19.1555 26.4108 20.6195 25.0731C20.4143 24.8704 20.2501 24.6812 20.0859 24.519C15.598 20.0868 11.1102 15.6411 6.6086 11.2089C4.73409 9.37114 4.10469 7.19557 5.06247 4.79029C6.03393 2.33095 7.92212 0.749943 10.6997 0.506712C12.41 0.35807 13.9288 0.939123 15.1739 2.11474C16.1043 3.00659 17.021 3.92546 17.9378 4.83082C21.7415 8.5874 25.559 12.3575 29.3627 16.1141C29.5269 16.2762 29.6911 16.4248 29.8826 16.6005C30.6899 15.8573 31.4835 15.1411 32.2634 14.4385C36.9292 10.1819 41.5949 5.92536 46.2744 1.68233C48.0668 0.0472747 50.3791 0.0743005 52.0758 1.74989C53.7724 3.41197 53.8135 5.70916 52.1579 7.47934C42.8264 17.4789 33.4812 27.4784 24.1497 37.4779C23.3834 38.3021 22.453 38.7211 21.2626 38.694C21.7826 41.7614 20.1133 43.6532 17.8967 45.2613C16.4327 46.3153 14.8318 47.1125 13.0941 47.6125C9.78295 48.5719 6.43072 48.8016 3.06481 47.9368C2.46278 47.7747 1.86075 47.5179 1.34081 47.1531C0.396712 46.5044 0.49249 45.2342 1.55973 44.8153C4.1731 43.7613 5.56872 41.775 6.36231 39.221C6.93698 37.3698 7.66216 35.5861 8.97568 34.0726C10.4397 32.3565 12.2458 31.4782 14.6676 31.8835ZM50.6938 4.73623C50.557 4.39841 50.4886 4.12816 50.3381 3.92546C49.695 3.0201 48.8877 2.99308 47.9847 3.81736C37.969 12.952 27.9534 22.0867 17.9241 31.2079C17.4041 31.6809 17.3494 32.1268 17.6367 32.6943C18.3482 34.0186 19.3744 35.0456 20.7153 35.7482C21.3447 36.086 21.8099 35.9779 22.3162 35.4374C28.0902 29.2215 33.878 23.0461 39.6657 16.8437C43.1137 13.1547 46.548 9.47924 49.9823 5.79024C50.2834 5.47944 50.4612 5.08757 50.6938 4.73623ZM22.713 23.1542C24.4233 21.6003 26.1199 20.0463 27.6934 18.6004C24.3686 15.3168 21.1121 12.0737 17.9241 8.92522C16.3506 10.4927 14.7224 12.1007 13.1215 13.6682C16.2685 16.7762 19.4565 19.9382 22.713 23.1542ZM5.60977 45.518C5.62345 45.6126 5.65082 45.6937 5.6645 45.7883C7.10117 45.7072 8.55152 45.7207 9.97451 45.5315C12.8752 45.1396 15.4612 44.0046 17.5957 41.9506C18.5808 41.0047 18.8408 39.8967 18.3619 38.6265C17.9514 37.5319 17.3084 36.586 16.419 35.8293C14.0793 33.8159 12.0406 34.0726 10.4534 36.6941C9.81032 37.7616 9.35879 38.9643 8.93463 40.1399C8.20946 42.1398 7.34746 44.0856 5.60977 45.518ZM15.8854 6.70911C14.9823 5.80375 14.1066 4.85785 13.1489 3.99303C11.9722 2.93902 10.2345 2.93902 9.03041 3.93898C7.40219 5.26323 6.8412 6.96585 7.84003 8.35768C8.71571 9.57383 9.89241 10.6008 10.8776 11.6548C12.6152 9.95219 14.2298 8.34416 15.8854 6.70911Z" fill="#FCB542"/>
<path d="M31.4271 35.736C32.0291 35.0469 32.6038 34.3848 33.2058 33.6821C35.094 35.5604 36.9275 37.4116 38.7472 39.2224C40.4712 37.5197 42.1131 35.9117 43.7687 34.2767C41.8121 32.3713 39.8008 30.4255 37.7621 28.4391C38.4325 27.6553 39.0072 26.9932 39.6229 26.2905C39.8282 26.4797 40.0197 26.6419 40.1839 26.8176C42.031 28.6418 43.7824 30.5876 45.7527 32.2632C48.1335 34.3037 49.2418 37.0333 50.3774 39.7629C51.1573 41.6277 51.7867 43.5465 52.4982 45.4383C52.7582 46.1139 52.5666 46.6409 52.0877 47.1544C51.5815 47.6814 51.0342 48.0463 50.2816 47.7895C46.6421 46.5328 42.9751 45.3167 39.5956 43.4249C39.103 43.1546 38.6378 42.8168 38.241 42.4249C35.956 40.2223 33.712 37.9927 31.4271 35.736ZM49.0776 44.587C49.146 44.5194 49.2144 44.4518 49.2828 44.3843C48.1608 41.7087 47.0389 39.0467 45.9306 36.4117C44.2339 38.0603 42.6604 39.5872 40.9364 41.2628C43.6866 42.3709 46.3821 43.4789 49.0776 44.587Z" fill="#FCB542"/>
</svg>
