<svg width="65" height="41" viewBox="0 0 65 41" fill="none" xmlns="http://www.w3.org/2000/svg">
<path d="M47.6396 0.474365C48.5879 0.954555 49.6311 1.32804 50.4657 1.96829C51.5468 2.78639 51.9072 4.01354 51.9072 5.31183C51.9072 15.4314 51.9261 25.5509 51.8882 35.6705C51.8882 38.3916 49.7829 40.4012 47.0326 40.4724C44.3583 40.5435 42.2909 38.6939 41.9495 35.9728C41.9305 35.7594 41.7408 35.4393 41.5512 35.3859C37.7578 34.3188 33.9454 33.2873 30.0951 32.238C30.0571 32.7538 30.0571 33.1984 29.9813 33.6252C29.4692 36.3107 26.7379 37.9469 23.8928 37.2178C21.2754 36.5597 18.6959 35.8128 16.0974 35.1014C13.1575 34.3011 11.3367 30.9219 13.6886 27.774C12.6833 27.4895 11.716 27.2227 10.6918 26.9381C10.559 27.3472 10.4642 27.6673 10.3504 28.0052C9.57273 30.1216 7.27771 31.4199 4.90683 31.0998C2.57389 30.7797 0.734082 28.8767 0.715115 26.6536C0.677181 22.6342 0.696148 18.6326 0.696148 14.6133C0.715115 12.1768 2.47905 10.2204 4.90683 9.90031C7.46738 9.5624 9.7624 11.003 10.4831 13.4217C10.54 13.5818 10.559 13.7596 10.6159 14.0086C10.9194 13.9552 11.1849 13.9019 11.4505 13.8307C21.2944 11.1452 31.1383 8.45974 40.9822 5.79202C41.646 5.61417 41.8926 5.36519 41.9684 4.67158C42.1771 2.78639 43.3151 1.4881 45.2308 0.794492C45.5153 0.687783 45.7998 0.581074 46.0843 0.474365C46.6343 0.474365 47.1464 0.474365 47.6396 0.474365ZM41.9115 32.6649C41.9115 24.5194 41.9115 16.4451 41.9115 8.28189C31.4607 11.1275 21.0857 13.973 10.6538 16.8186C10.6538 19.0061 10.6918 21.1581 10.6349 23.31C10.6159 23.9859 10.9004 24.1993 11.5263 24.3771C19.0183 26.4046 26.5103 28.4676 33.9833 30.5129C36.6197 31.2421 39.2372 31.9535 41.9115 32.6649ZM44.7945 20.4823C44.7945 25.3731 44.7945 30.2817 44.7945 35.1725C44.7945 35.4749 44.7756 35.7594 44.8135 36.0618C44.9463 37.0399 45.8567 37.7869 46.8809 37.7869C47.9241 37.8047 48.8155 37.0755 48.9862 36.0973C49.0431 35.7238 49.0432 35.3326 49.0432 34.9413C49.0432 25.2842 49.0432 15.6448 49.0432 5.98765C49.0432 5.59639 49.0431 5.22291 48.9862 4.83164C48.8724 4.03133 48.3603 3.49778 47.5258 3.24879C46.0464 2.80417 44.7945 3.78234 44.7756 5.40076C44.7945 10.4516 44.8135 15.467 44.7945 20.4823ZM7.80879 20.5C7.80879 18.6504 7.80879 16.783 7.80879 14.9334C7.80879 13.4039 7.01217 12.5325 5.70345 12.5147C4.37576 12.5147 3.57914 13.4039 3.57914 14.8978C3.57914 18.6504 3.57914 22.3852 3.57914 26.1378C3.57914 27.5784 4.39472 28.4499 5.68448 28.4676C6.97424 28.4854 7.80879 27.5962 7.82776 26.1734C7.82776 24.2704 7.80879 22.3852 7.80879 20.5ZM25.0878 34.7101C26.1689 34.7101 26.9845 34.1054 27.1741 33.234C27.3638 32.4159 26.9276 31.4555 26.0361 31.2065C23.248 30.3884 20.4408 29.6237 17.6148 28.93C16.6474 28.6811 15.6422 29.4636 15.4715 30.3884C15.2818 31.4199 15.8319 32.238 17.0268 32.5759C19.4546 33.2695 21.9013 33.9276 24.3481 34.5856C24.6515 34.6567 24.936 34.6745 25.0878 34.7101Z" fill="#FCB542"/>
<path d="M59.7595 21.8161C58.6594 21.8161 57.5593 21.8339 56.4593 21.8161C55.3971 21.7983 54.8091 21.3181 54.7902 20.5C54.7712 19.6819 55.3592 19.1662 56.4024 19.1484C58.6025 19.1306 60.8217 19.1306 63.0219 19.1484C64.103 19.1662 64.672 19.6463 64.691 20.4644C64.7099 21.3003 64.103 21.7983 62.965 21.8161C61.9028 21.8339 60.8217 21.8161 59.7595 21.8161Z" fill="#FCB542"/>
<path d="M55.9662 15.2357C55.6438 14.9867 55.0558 14.7199 54.942 14.3464C54.8092 13.9196 54.8851 13.1549 55.2075 12.9236C57.1611 11.4475 59.1716 10.0425 61.2201 8.67308C61.827 8.26403 62.5098 8.45966 62.984 9.02878C63.4392 9.59789 63.4581 10.2737 62.8891 10.7005C60.8976 12.1767 58.8302 13.5817 56.8007 14.9867C56.63 15.1112 56.3835 15.129 55.9662 15.2357Z" fill="#FCB542"/>
<path d="M63.2875 30.8863C63.2875 32.1135 62.0736 32.8427 61.2011 32.2736C59.1527 30.9219 57.1422 29.4991 55.1886 28.0408C54.5816 27.5961 54.6006 26.867 55.1317 26.2979C55.6817 25.6932 56.3835 25.6398 57.0663 26.1022C58.4319 27.0448 59.7786 28.0052 61.1442 28.9478C61.6563 29.3035 62.1874 29.6236 62.6426 30.0149C62.9461 30.3172 63.1357 30.7085 63.2875 30.8863Z" fill="#FCB542"/>
</svg>
