<svg width="32" height="49" viewBox="0 0 32 49" fill="none" xmlns="http://www.w3.org/2000/svg">
<path d="M17.3765 0.474365C18.0337 0.587099 18.7003 0.681044 19.3481 0.821962C25.6572 2.21235 30.3421 7.00354 31.3843 13.326C32.2574 18.5964 30.7459 23.1903 26.9623 26.9762C25.676 28.2633 24.5025 29.6161 23.9204 31.3541C23.5824 32.3499 23.3007 33.4021 23.235 34.4449C23.1223 36.2768 23.2068 38.1275 23.2068 39.8373C23.6763 40.1379 24.1269 40.3352 24.4649 40.664C24.6527 40.8519 24.7278 41.2371 24.7184 41.5283C24.709 42.3175 24.1832 42.7402 23.0472 42.8999C22.6998 44.403 21.9488 45.6901 20.7846 46.7329C16.9634 50.1337 10.7764 48.3111 9.41502 43.3696C9.32113 43.0408 9.21786 42.8529 8.8517 42.759C8.26961 42.6181 7.90346 42.092 7.87529 41.5189C7.84713 40.9177 8.18511 40.3728 8.73904 40.1473C8.8517 40.1004 8.97376 40.0628 9.12397 40.0158C9.09581 36.8968 9.45257 33.7309 8.02551 30.7716C7.35892 29.3906 6.52334 28.1506 5.43426 27.0702C3.04957 24.7216 1.50045 21.922 0.927749 18.6151C-0.5932 9.8031 5.42488 2.10901 13.2831 0.746806C13.8652 0.643466 14.4567 0.56831 15.0388 0.474365C15.818 0.474365 16.5973 0.474365 17.3765 0.474365ZM20.2213 34.4073C20.578 33.0263 20.8315 31.6829 21.2728 30.4146C22.0426 28.2351 23.4697 26.4971 25.0845 24.8719C28.2203 21.7059 29.4221 17.8542 28.5489 13.4951C27.2439 6.94718 21.4324 2.73844 14.7947 3.36787C7.55608 4.06306 2.27031 10.921 3.7631 18.4554C4.27947 21.0671 5.54693 23.256 7.45281 25.1067C9.0207 26.6286 10.213 28.423 10.936 30.4898C11.3772 31.7486 11.6589 33.0639 12.0157 34.3885C12.8512 34.3885 13.7901 34.3885 14.7571 34.3885C14.7571 34.2006 14.7571 34.0409 14.7571 33.8906C14.7571 31.0159 14.7665 28.1412 14.7477 25.2664C14.7477 24.994 14.6538 24.684 14.5036 24.4491C12.8137 21.8938 11.1144 19.3479 9.42441 16.802C8.9362 16.0692 9.08642 15.2237 9.76239 14.7822C10.429 14.3312 11.2552 14.5285 11.7622 15.2425C11.9875 15.5713 12.2128 15.9095 12.4381 16.2477C13.4052 15.7686 14.3346 15.3271 15.2359 14.8386C15.8744 14.491 16.4564 14.491 17.0949 14.8386C18.0056 15.3365 18.9538 15.778 19.9021 16.2571C20.1555 15.8813 20.3809 15.5244 20.625 15.1861C20.9911 14.6695 21.5732 14.4534 22.1459 14.6131C23.1317 14.8855 23.4885 15.9471 22.8876 16.8678C21.2071 19.4043 19.5077 21.9314 17.8366 24.4773C17.6957 24.6934 17.5925 24.9846 17.5925 25.2477C17.5737 28.1506 17.5831 31.0629 17.5831 33.9658C17.5831 34.1161 17.5925 34.2664 17.6019 34.4355C18.5219 34.4073 19.4232 34.4073 20.2213 34.4073ZM20.3433 40.0346C20.3433 39.1045 20.3433 38.1839 20.3433 37.2632C17.5361 37.2632 14.7571 37.2632 11.9875 37.2632C11.9875 38.2121 11.9875 39.1139 11.9875 40.0346C14.7759 40.0346 17.5361 40.0346 20.3433 40.0346ZM12.241 42.8811C12.7292 44.5346 14.4661 45.7089 16.2968 45.6713C18.0056 45.6337 19.7237 44.3749 20.0804 42.8811C17.461 42.8811 14.8698 42.8811 12.241 42.8811ZM13.9966 18.6057C14.7196 19.6955 15.4237 20.7477 16.156 21.8468C16.9071 20.7195 17.6019 19.6767 18.3154 18.5963C17.6394 18.2581 17.001 17.9293 16.3532 17.6287C16.2405 17.5724 16.0434 17.5817 15.9307 17.6381C15.3017 17.9387 14.682 18.2581 13.9966 18.6057Z" fill="#FCB542"/>
</svg>
