<svg width="49" height="49" viewBox="0 0 49 49" fill="none" xmlns="http://www.w3.org/2000/svg">
<path d="M0.691406 23.1952C1.32462 20.3763 3.41226 18.8531 5.75715 17.5574C5.94514 17.4585 6.13312 17.3596 6.331 17.2508C6.04408 16.3507 5.77694 15.4803 5.47022 14.511C8.04267 15.144 10.5162 15.7671 13.0688 16.4001C11.3671 18.3882 9.70487 20.3268 7.97341 22.3446C7.6568 21.3555 7.35998 20.4455 7.03348 19.4564C5.48011 20.3071 3.99601 21.1379 3.20449 22.7699C2.75926 23.6799 2.87799 24.6096 3.49142 25.3712C4.05538 26.0636 4.70838 26.7263 5.44054 27.2307C7.51828 28.6847 9.89285 29.4562 12.3268 30.0991C13.0095 30.2771 13.7021 30.4156 14.3946 30.5936C14.5134 30.6233 14.6816 30.7618 14.7014 30.8805C14.8102 31.563 14.8794 32.2454 14.9685 33.007C14.5332 32.9279 14.1374 32.8587 13.7515 32.7696C10.8427 32.1663 8.00309 31.3552 5.39107 29.8815C4.61934 29.4463 3.88718 28.932 3.1946 28.388C1.90837 27.3791 1.0278 26.0933 0.691406 24.481C0.691406 24.0458 0.691406 23.6205 0.691406 23.1952Z" fill="#FCB542"/>
<path d="M35.1819 22.9875C36.0723 22.9875 36.9034 22.9875 37.8434 22.9875C36.567 25.0646 35.3303 27.0625 34.0441 29.1396C32.7677 27.0823 31.5409 25.0744 30.2546 22.9973C31.1649 22.9973 31.996 22.9973 32.8964 22.9973C32.8568 22.1368 32.8271 21.3357 32.7776 20.5444C32.5105 16.7364 31.907 12.9976 30.6306 9.39731C30.1062 7.90378 29.4829 6.44981 28.543 5.17388C28.0681 4.53097 27.5239 3.91773 26.9006 3.42318C25.7924 2.533 24.6447 2.57256 23.497 3.39351C22.6165 4.02653 21.9733 4.88704 21.4193 5.8069C19.9055 8.33898 19.0645 11.1183 18.4906 13.9867C17.2539 20.1389 17.1549 26.3306 18.0652 32.5421C18.5203 35.6479 19.2327 38.6844 20.5684 41.533C20.9641 42.3737 21.4588 43.1749 21.9634 43.9661C22.2009 44.3519 22.5274 44.6981 22.8539 45.0245C24.4172 46.5872 25.9705 46.607 27.5437 45.0442C28.8596 43.7485 29.6907 42.1264 30.314 40.4252C30.8582 38.9514 31.2737 37.4183 31.7091 35.905C31.9465 35.094 32.4511 34.6884 33.1536 34.8467C33.8165 34.995 34.1628 35.6083 33.9847 36.3897C33.3119 39.2877 32.4017 42.0967 30.7988 44.6288C30.1557 45.6476 29.384 46.5674 28.4242 47.3093C26.4355 48.8325 24.1401 48.8621 22.1217 47.3983C21.0829 46.6466 20.2815 45.6674 19.5988 44.5893C17.9069 41.9385 16.9472 39.0207 16.3238 35.994C14.6814 27.923 14.721 19.852 16.591 11.8107C17.1945 9.20938 18.0949 6.70698 19.5295 4.42217C20.2419 3.28471 21.0829 2.25605 22.191 1.47467C24.1105 0.129503 26.3069 0.139394 28.2165 1.51423C29.6214 2.533 30.6009 3.90784 31.4024 5.41126C32.9458 8.29942 33.8561 11.4151 34.331 14.6296C34.7169 17.2408 34.8851 19.8916 35.1423 22.5226C35.1621 22.6611 35.1621 22.7896 35.1819 22.9875Z" fill="#FCB542"/>
<path d="M18.6393 31.2366C19.0944 31.2761 19.4803 31.3157 19.876 31.3553C25.5354 31.8102 31.1552 31.5432 36.686 30.2079C39.0308 29.6441 41.3164 28.9122 43.3644 27.6165C44.2153 27.0824 45.0266 26.4098 45.6796 25.6581C46.6987 24.491 46.6393 23.1952 45.6796 21.9688C44.9178 20.9896 43.9086 20.317 42.8301 19.7235C41.0294 18.7443 39.1001 18.0915 37.1213 17.5772C36.6563 17.4585 36.3001 17.231 36.1616 16.7562C35.9241 15.9452 36.6365 15.1242 37.4676 15.3319C40.5446 16.1034 43.5326 17.1222 46.0556 19.1301C47.2924 20.1093 48.262 21.2962 48.5885 22.8985C48.8952 24.3822 48.4994 25.7075 47.6287 26.9043C46.4118 28.5759 44.71 29.6342 42.8796 30.4948C39.7135 31.9784 36.3298 32.7598 32.8867 33.2642C28.5432 33.9071 24.17 33.9863 19.7969 33.65C19.6782 33.6401 19.5693 33.6104 19.4506 33.6203C19.0944 33.6302 18.9361 33.4917 18.8965 33.106C18.857 32.5026 18.7382 31.9092 18.6393 31.2366Z" fill="#FCB542"/>
</svg>
