<svg width="62" height="49" viewBox="0 0 62 49" fill="none" xmlns="http://www.w3.org/2000/svg">
<path d="M61.291 7.25773C59.0465 9.38625 56.8389 11.5148 54.4841 13.7553C56.5445 16.4813 58.605 19.1699 60.8126 22.0453C58.9729 22.6054 57.3172 23.1656 55.6247 23.539C54.3737 23.8004 54.1161 24.4352 54.1161 25.5928C54.1529 30.522 54.0794 35.4139 54.1529 40.3431C54.1897 41.6501 53.8586 42.2849 52.4972 42.6583C45.6903 44.4881 38.9203 46.4672 32.1134 48.3343C31.4511 48.521 30.6416 48.521 29.9793 48.3343C23.1357 46.4299 16.292 44.4881 9.44835 42.5836C8.27095 42.2475 7.9398 41.7247 7.9398 40.5298C8.01339 35.75 7.86622 30.9328 8.01339 26.153C8.08698 24.3232 7.46148 23.5763 5.80576 23.2776C4.3708 23.0162 2.97263 22.4934 1.28011 22.0453C3.48774 19.2446 5.5482 16.556 7.68225 13.7553C5.40103 11.5521 3.1566 9.42359 0.691406 7.07102C6.28408 5.4653 11.5456 3.9716 16.8439 2.47791C19.4563 1.73106 22.2526 0.0506544 24.5706 0.573447C26.8519 1.0589 28.6548 3.82223 30.6784 5.61467C30.752 5.68935 30.8992 5.72669 31.1935 5.91341C32.8493 4.34503 34.5786 2.66462 36.3447 1.09624C36.7862 0.722817 37.5589 0.386736 38.0372 0.536105C45.6535 2.62728 53.2699 4.79313 60.8862 6.95899C61.0334 6.95899 61.107 7.07102 61.291 7.25773ZM10.0739 24.5472C10.0739 29.5138 10.1474 34.2189 10.0371 38.9241C10.0003 40.3431 10.5154 40.8285 11.8032 41.1646C17.2487 42.6209 22.6574 44.2267 28.0661 45.7577C28.6916 45.9444 29.3171 46.0191 29.9793 46.1685C29.9793 38.4759 29.9793 31.0075 29.9793 23.0909C28.9491 24.4352 28.1397 25.4435 27.367 26.4517C25.4537 28.9163 25.4537 28.9163 22.4734 28.0574C18.3893 26.8998 14.3419 25.7422 10.0739 24.5472ZM32.187 46.0564C32.5181 46.0564 32.7757 46.0938 32.9964 46.0564C38.9939 44.376 45.0281 42.621 51.0255 40.9779C52.0925 40.6791 52.1293 40.0443 52.1293 39.1855C52.0925 35.7126 52.1293 32.2398 52.1293 28.7296C52.1293 27.3853 52.1293 26.0783 52.1293 24.5099C47.2725 25.8916 42.7468 27.1239 38.2212 28.4682C37.1174 28.8043 36.4551 28.6176 35.7928 27.6467C34.7994 26.153 33.5851 24.7713 32.187 23.0162C32.187 31.0448 32.187 38.5133 32.187 46.0564ZM13.6061 13.3819C13.6061 13.5312 13.5693 13.6806 13.5693 13.83C18.0213 15.0996 22.547 16.2199 26.9622 17.7136C29.8322 18.6845 32.4813 18.6472 35.3513 17.7136C39.7297 16.2572 44.2554 15.137 49.0018 13.7553C48.5235 13.4566 48.3395 13.3072 48.1187 13.2325C42.7468 11.7015 37.3749 10.2078 32.003 8.71408C31.5615 8.60206 31.0096 8.52737 30.5681 8.6394C24.9018 10.2078 19.2355 11.8135 13.6061 13.3819ZM4.73874 20.925C11.288 22.7922 17.5798 24.5846 23.8716 26.3023C24.2027 26.4144 24.8282 26.3023 25.0122 26.0409C26.4839 24.2485 27.8453 22.4187 29.3906 20.4022C22.8045 18.5351 16.5864 16.78 10.3314 15.0249C9.96347 14.9129 9.30118 15.0249 9.04362 15.3237C7.60866 17.1161 6.28408 18.9085 4.73874 20.925ZM32.8125 20.4396C34.1003 22.1573 35.3513 23.6137 36.4183 25.1821C37.1542 26.265 37.89 26.5264 39.1778 26.153C44.0346 24.6966 48.9282 23.3523 53.8218 21.9706C54.9624 21.6345 56.103 21.2985 57.4276 20.925C56.5077 19.7301 55.7719 18.7218 55.036 17.7883C52.7548 14.8382 52.7548 14.8382 49.1122 15.8838C43.7403 17.3402 38.4052 18.8339 32.8125 20.4396ZM57.5748 8.04192C50.9519 6.1748 44.7337 4.41971 38.4787 2.70196C38.1476 2.58994 37.5957 2.7393 37.3381 2.96336C35.9768 4.15831 34.689 5.4653 33.1436 6.92165C39.7297 8.78877 46.0215 10.5812 52.3132 12.3363C52.6444 12.411 53.1595 12.2243 53.4171 12.0002C54.7048 10.8053 55.9926 9.53561 57.5748 8.04192ZM4.66515 8.07926C5.91614 9.31156 7.05675 10.2451 8.01339 11.328C8.85965 12.2616 9.66912 12.4857 10.8833 12.1122C16.4024 10.4692 21.9215 8.93814 27.4774 7.33242C27.9189 7.22039 28.3236 7.03368 28.9491 6.80962C27.6613 5.57732 26.4839 4.56908 25.4537 3.44881C24.681 2.58994 23.8716 2.51525 22.8413 2.85133C18.4997 4.12097 14.1212 5.31593 9.7795 6.58557C8.19736 7.03368 6.57843 7.51913 4.66515 8.07926Z" fill="#FCB542"/>
</svg>
