<svg width="44" height="49" viewBox="0 0 44 49" fill="none" xmlns="http://www.w3.org/2000/svg">
<path d="M6.11593 0.474365C11.3016 0.474365 16.4874 0.474365 21.6731 0.474365C25.9376 2.01502 27.8823 5.0621 27.507 9.68407C27.3705 11.1562 27.5752 12.6627 27.4729 14.1349C27.3705 15.607 27.7799 16.5314 29.0763 17.3531C30.9869 18.5514 32.7609 19.9893 34.4668 21.4958C36.4114 23.2076 37.9808 25.2276 37.9466 28.0692C37.9466 31.219 37.2984 34.54 38.1855 37.4159C39.0725 40.326 41.4265 42.8253 43.2006 45.4615C43.9511 46.5913 44.0194 47.5157 43.03 48.4744C42.5865 48.4744 42.143 48.4744 41.6653 48.4744C39.5842 45.3588 37.5031 42.2775 35.4561 39.1277C35.115 38.6142 34.9785 37.861 34.9785 37.2105C34.9444 34.2319 34.9785 31.2875 34.9444 28.3089C34.9444 27.5557 34.8079 26.6313 34.3985 26.0493C32.6927 23.55 30.2363 21.8381 27.507 19.9209C27.507 20.811 27.5752 21.3931 27.507 21.9066C27.1999 24.714 27.5752 27.1791 30.4069 28.6513C31.2939 29.0963 31.7033 30.055 31.021 30.9451C30.2363 31.938 29.3493 31.5614 28.5305 30.9109C26.3129 29.0621 24.0953 27.2818 21.9119 25.4672C21.2978 24.9537 20.5813 24.4744 20.0696 25.3645C19.8308 25.7411 20.0355 26.6655 20.3766 27.0764C22.1507 29.2333 23.9589 31.356 25.8694 33.3417C27.0976 34.6085 27.7458 35.9779 27.507 37.7583C27.1317 40.6341 27.9164 43.1677 29.9293 45.2561C30.9186 46.2832 30.9869 47.2761 30.134 48.4059C29.6904 48.4059 29.2469 48.4059 28.7693 48.4059C27.5411 46.8995 26.3129 45.3931 25.2894 44.1263C23.7542 44.5714 22.3213 45.2561 20.8884 45.3246C16.4532 45.4615 11.984 45.4273 7.54883 45.3588C4.06894 45.2903 1.5102 42.8938 0.964338 39.4359C0.930222 39.1277 0.759639 38.8196 0.691406 38.4772C0.691406 28.1035 0.691406 17.6955 0.691406 7.32173C1.20315 4.00076 3.01133 1.70689 6.11593 0.474365ZM3.89836 33.4102C3.89836 35.3959 3.76189 37.1762 3.93247 38.8881C4.10306 40.8396 5.36537 42.2433 7.13943 42.2775C11.8816 42.3802 16.5897 42.346 21.3319 42.2433C22.7989 42.209 23.8906 41.1819 24.2659 39.7782C24.6412 38.3403 25.0165 36.8339 23.7542 35.4644C21.6731 33.2048 19.6602 30.9109 17.7155 28.5485C16.385 26.9394 16.5556 24.7483 17.9202 23.2418C19.319 21.7354 21.4001 21.53 23.1401 22.6598C23.5154 22.8995 23.9248 23.1734 24.5047 23.5842C24.5047 18.0378 24.573 12.7996 24.4706 7.56138C24.4024 5.16481 22.526 3.55568 20.0696 3.52144C16.2827 3.4872 12.5298 3.4872 8.7429 3.52144C5.16067 3.52144 3.79601 4.92515 3.79601 8.62273C3.79601 15.2989 3.79601 21.9751 3.79601 28.617C3.79601 29.1648 3.79601 29.7126 3.79601 30.4316C4.58069 30.4316 5.12655 30.4316 5.70653 30.4316C8.12881 30.4316 10.5511 30.4316 12.9734 30.4316C13.4169 30.4316 13.9968 30.2946 14.3039 30.5343C14.8156 30.9109 15.1909 31.4929 15.6344 32.0065C15.0545 32.4858 14.4745 33.3417 13.8604 33.3417C10.6193 33.4786 7.34413 33.4102 3.89836 33.4102Z" fill="#FCB542"/>
<path d="M10.8923 16.3944C7.65123 13.0392 7.27595 9.61553 10.0053 7.01353C12.3252 4.78814 16.0098 4.85661 18.1932 7.18471C20.6837 9.82095 20.2743 13.3473 17.0333 16.4629C17.7497 16.8053 18.5685 17.0449 19.0803 17.5585C19.4897 17.9693 19.7967 18.9622 19.592 19.373C19.3532 19.8181 18.2956 20.2632 17.8521 20.0578C14.7475 18.6883 11.8817 18.8252 9.08412 20.8794C8.70884 21.1533 7.583 20.811 7.13948 20.3659C6.90067 20.1262 7.13948 18.8595 7.54888 18.5513C8.53826 17.6954 9.76645 17.0792 10.8923 16.3944ZM13.9628 14.1348C15.4298 14.169 16.7603 12.868 16.8286 11.3616C16.9309 9.82095 15.5663 8.383 14.031 8.34876C12.564 8.31453 11.2335 9.58129 11.1652 11.0877C11.1311 12.6626 12.4275 14.1006 13.9628 14.1348Z" fill="#FCB542"/>
<path d="M14.0992 40.1548C13.0075 40.0521 12.1887 39.4016 12.0522 38.0664C11.9157 36.8339 12.9392 35.7383 14.1333 35.7383C15.4638 35.7383 16.2144 36.4572 16.3509 37.7925C16.4873 39.025 15.498 40.0863 14.0992 40.1548Z" fill="#FCB542"/>
</svg>
