<svg width="49" height="49" viewBox="0 0 49 49" fill="none" xmlns="http://www.w3.org/2000/svg">
<path d="M48.6914 30.7128C48.6914 36.3094 48.6914 41.906 48.6914 47.5086C48.6914 47.9705 48.1873 48.4744 47.7313 48.4744C44.8809 48.4744 42.0306 48.4744 39.1802 48.4744C38.7662 48.4744 38.2501 47.9585 38.2501 47.5446C38.2501 36.3394 38.2501 25.1342 38.2501 13.929C38.2501 13.5271 38.7662 13.0112 39.1622 13.0112C42.0306 13.0112 44.9049 13.0112 47.7733 13.0112C48.1753 13.0112 48.6914 13.5271 48.6914 13.923C48.6914 19.5136 48.6914 25.1162 48.6914 30.7128ZM46.5851 15.1047C46.4891 15.0927 46.4231 15.0807 46.3511 15.0807C44.4429 15.0807 42.5346 15.0867 40.6204 15.0747C40.3504 15.0747 40.3384 15.2007 40.3384 15.4046C40.3384 25.6201 40.3384 35.8295 40.3444 46.045C40.3444 46.1469 40.3564 46.2549 40.3624 46.3569C42.4566 46.3569 44.5149 46.3569 46.5851 46.3569C46.5851 35.9375 46.5851 25.5361 46.5851 15.1047Z" fill="#FCB542"/>
<path d="M25.7265 34.8818C25.7265 30.6948 25.7265 26.5079 25.7265 22.3149C25.7265 21.853 26.2246 21.3431 26.6866 21.3431C29.537 21.3431 32.3873 21.3431 35.2377 21.3431C35.6637 21.3431 36.1678 21.847 36.1678 22.2789C36.1678 30.6948 36.1678 39.1107 36.1678 47.5266C36.1678 47.9645 35.6637 48.4684 35.2137 48.4684C32.3633 48.4684 29.513 48.4684 26.6626 48.4684C26.2486 48.4684 25.7265 47.9465 25.7265 47.5326C25.7265 43.3157 25.7265 39.0987 25.7265 34.8818ZM34.0675 46.3629C34.0675 38.7088 34.0675 31.0907 34.0675 23.4486C31.9853 23.4486 29.921 23.4486 27.8448 23.4486C27.8448 31.0967 27.8448 38.7208 27.8448 46.3629C29.921 46.3629 31.9793 46.3629 34.0675 46.3629Z" fill="#FCB542"/>
<path d="M38.8084 2.64582C38.3824 2.62783 38.0043 2.60983 37.6323 2.59183C36.7442 2.55584 35.8561 2.53185 34.968 2.47186C34.3919 2.43587 34.0558 1.99798 34.1099 1.43412C34.1519 0.924253 34.6319 0.480364 35.13 0.480364C37.1222 0.480364 39.1085 0.486362 41.1007 0.474365C41.3287 0.474365 41.4788 0.558344 41.6528 0.69631C42.0668 1.03223 42.2049 1.42813 42.1869 1.96799C42.1388 3.68356 42.1568 5.40513 42.1388 7.1267C42.1328 7.44462 42.0968 7.76854 42.0308 8.07446C41.9348 8.54234 41.5748 8.82427 41.1427 8.81228C40.6807 8.80628 40.2306 8.47636 40.1526 8.04447C40.0986 7.75054 40.0926 7.45062 40.0926 7.15069C40.0866 6.28091 40.0926 5.41713 40.0926 4.46337C39.9726 4.56534 39.9066 4.61933 39.8466 4.67331C37.7343 6.79078 35.592 8.87226 33.2758 10.7678C28.7152 14.4869 23.7766 17.5821 18.3459 19.8675C13.9474 21.721 9.3808 22.9147 4.61622 23.3106C3.6441 23.3886 2.65997 23.4006 1.68185 23.3946C1.13579 23.3946 0.703733 22.8967 0.697732 22.3809C0.68573 21.871 1.05778 21.4571 1.63385 21.4091C2.84 21.3071 4.04615 21.2592 5.25229 21.1452C9.19478 20.7733 12.9812 19.7895 16.6477 18.3019C24.2626 15.2187 30.8995 10.6778 36.6722 4.85327C37.3203 4.19943 37.9563 3.5396 38.5984 2.87976C38.6584 2.81978 38.7124 2.7478 38.8084 2.64582Z" fill="#FCB542"/>
<path d="M13.215 38.0309C13.215 34.8697 13.215 31.7145 13.215 28.5533C13.215 28.0914 13.713 27.5935 14.1811 27.5935C17.0195 27.5935 19.8578 27.5935 22.7022 27.5935C23.1402 27.5935 23.6563 28.1094 23.6563 28.5413C23.6563 34.8697 23.6563 41.1921 23.6563 47.5205C23.6563 47.9344 23.1402 48.4623 22.7262 48.4623C19.8638 48.4623 17.0075 48.4623 14.1451 48.4623C13.725 48.4623 13.215 47.9524 13.215 47.5325C13.215 44.3713 13.215 41.2041 13.215 38.0309ZM21.544 46.3628C21.544 40.7962 21.544 35.2656 21.544 29.711C19.4618 29.711 17.3975 29.711 15.3212 29.711C15.3212 35.2656 15.3212 40.8082 15.3212 46.3628C17.3975 46.3628 19.4558 46.3628 21.544 46.3628Z" fill="#FCB542"/>
<path d="M11.1267 40.1604C11.1267 42.6198 11.1267 45.0791 11.1267 47.5385C11.1267 47.9524 10.6106 48.4743 10.1966 48.4743C7.34023 48.4743 4.47787 48.4743 1.62152 48.4743C1.20747 48.4743 0.691406 47.9584 0.691406 47.5445C0.691406 42.5958 0.691406 37.653 0.691406 32.7042C0.691406 32.3083 1.20747 31.7865 1.60352 31.7865C4.47187 31.7865 7.34023 31.7865 10.2086 31.7865C10.6106 31.7865 11.1267 32.3023 11.1267 32.7042C11.1267 35.1816 11.1267 37.671 11.1267 40.1604ZM2.80367 33.886C2.80367 38.0549 2.80367 42.2059 2.80367 46.3508C4.89192 46.3508 6.95018 46.3508 9.00843 46.3508C9.00843 42.1819 9.00843 38.0369 9.00843 33.886C6.92618 33.886 4.87392 33.886 2.80367 33.886Z" fill="#FCB542"/>
</svg>
