<svg width="49" height="49" viewBox="0 0 49 49" fill="none" xmlns="http://www.w3.org/2000/svg">
<path d="M34.6215 48.4744C34.3515 47.9433 33.8532 47.4122 33.8116 46.8608C33.4794 42.0403 29.5133 38.2821 24.6335 38.3025C19.816 38.3229 15.8914 42.0812 15.5592 46.8608C15.5177 47.4122 15.0401 47.9433 14.7494 48.4744C14.4794 48.4744 14.1887 48.4744 13.9188 48.4744C13.2543 48.0863 13.0674 47.5144 13.0882 46.7586C13.275 41.1008 18.0925 36.2191 23.886 35.8923C29.8455 35.5451 35.1614 39.6914 36.0543 45.3493C36.1373 45.8191 36.1581 46.2888 36.2204 46.7586C36.3242 47.5144 36.075 48.0863 35.4106 48.4744C35.1821 48.4744 34.8914 48.4744 34.6215 48.4744Z" fill="#FCB542"/>
<path d="M0.712171 36.0762C1.29359 34.4013 2.18649 32.9307 3.95151 32.2362C6.31873 31.2966 8.39523 31.8685 10.2018 33.6456C11.2193 33.0532 12.216 32.4609 13.2127 31.8685C13.9603 31.4192 14.6247 31.46 15.0816 32.2158C15.4969 32.9307 15.1854 33.523 14.5209 33.9315C14.251 34.0949 14.0018 34.2583 13.7318 34.4013C12.4029 35.1571 11.2193 35.729 11.3023 37.7919C11.4062 40.2226 9.03894 42.1221 6.56791 42.3468C4.11763 42.5715 1.87501 41.1417 1.00288 38.8336C0.919821 38.5885 0.795231 38.3434 0.691406 38.0983C0.712171 37.4243 0.712171 36.7502 0.712171 36.0762ZM6.11108 39.9162C7.70998 39.8958 8.97665 38.609 8.97665 37.0566C8.95588 35.4839 7.64769 34.2379 6.06955 34.2379C4.47064 34.2583 3.20397 35.5451 3.20397 37.0975C3.22474 38.6702 4.53293 39.9366 6.11108 39.9162Z" fill="#FCB542"/>
<path d="M0.712204 14.9153C1.37668 12.9545 2.53953 11.443 4.65756 10.8711C8.51985 9.84982 12.3198 13.1792 11.2401 17.5298C12.1745 18.0609 13.1504 18.5919 14.1264 19.1434C15.1024 19.6949 15.3931 20.3281 14.9985 21.0021C14.5832 21.7375 13.8772 21.8192 12.8597 21.2268C11.9045 20.6958 10.9494 20.1443 9.9734 19.5928C8.51985 20.8183 6.92094 21.4719 5.01056 21.0838C2.70565 20.6345 1.41821 19.0617 0.712204 16.9375C0.712204 16.2634 0.712204 15.5894 0.712204 14.9153ZM6.11111 18.7758C7.71001 18.7553 8.97668 17.4685 8.97668 15.9162C8.95592 14.3434 7.64772 13.0975 6.06958 13.0975C4.47067 13.1179 3.20401 14.4047 3.20401 15.957C3.22477 17.5298 4.53297 18.7758 6.11111 18.7758Z" fill="#FCB542"/>
<path d="M24.6751 33.8293C20.6051 33.8293 17.2619 30.5204 17.2412 26.517C17.2412 22.4727 20.6259 19.1638 24.7374 19.1842C28.8073 19.2046 32.1297 22.534 32.1089 26.5374C32.1297 30.5408 28.745 33.8293 24.6751 33.8293ZM29.6587 26.4965C29.6587 23.8412 27.4368 21.6557 24.7374 21.6353C21.9964 21.6149 19.733 23.8208 19.733 26.517C19.733 29.1723 21.9548 31.3578 24.6543 31.3782C27.3953 31.3987 29.6587 29.1927 29.6587 26.4965Z" fill="#FCB542"/>
<path d="M39.4803 19.6541C38.4629 20.226 37.4661 20.7979 36.4487 21.3699C35.5765 21.8396 34.8082 21.7171 34.4552 21.0839C34.0814 20.4303 34.3722 19.7358 35.2028 19.2456C35.4104 19.1231 35.6181 19.0005 35.8257 18.8984C37.3 18.2856 38.2344 17.5911 38.006 15.6099C37.7361 13.2814 39.8334 11.198 42.2421 10.6873C44.5885 10.1971 47.0181 11.3614 48.1186 13.4856C49.2191 15.6507 48.7 18.2652 46.8519 19.8584C45.0246 21.4311 42.3667 21.5945 40.3525 20.2669C40.0825 20.1035 39.8126 19.8992 39.4803 19.6541ZM46.1875 15.9163C46.1875 14.3435 44.8793 13.0771 43.3011 13.0771C41.7022 13.0771 40.4148 14.3639 40.4148 15.9163C40.4148 17.489 41.723 18.7554 43.3011 18.7554C44.9 18.7758 46.1875 17.489 46.1875 15.9163Z" fill="#FCB542"/>
<path d="M39.1898 33.6455C40.9964 31.9093 42.9898 31.317 45.3155 32.1953C47.9112 33.1757 49.2401 35.974 48.451 38.6089C47.7035 41.1212 45.0248 42.7757 42.4292 42.3059C39.6467 41.8157 37.6948 39.4259 37.9647 36.7093C38.027 36.0149 37.8817 35.6676 37.2795 35.3613C36.4904 34.9527 35.7429 34.4625 34.9745 33.9927C34.1232 33.4617 33.874 32.7672 34.3101 32.1544C34.8707 31.3579 35.556 31.5008 36.3035 31.9502C37.2379 32.5221 38.1931 33.0532 39.1898 33.6455ZM43.2806 34.2379C41.6816 34.2583 40.415 35.5451 40.415 37.0974C40.4357 38.6702 41.7439 39.9366 43.3221 39.9161C44.921 39.8957 46.1877 38.6089 46.1877 37.0566C46.1877 35.4838 44.8795 34.2379 43.2806 34.2379Z" fill="#FCB542"/>
<path d="M23.4498 10.9732C20.2105 9.50261 18.84 7.33751 19.4422 4.68219C20.0028 2.16986 22.1832 0.45412 24.7788 0.474546C27.3537 0.494971 29.4925 2.29241 29.9908 4.8456C30.5099 7.43963 29.0564 9.64559 25.9416 10.9528C25.9416 11.8924 25.9416 12.8728 25.9416 13.8532C25.9416 14.9562 25.5263 15.5077 24.7165 15.5077C23.9067 15.5281 23.4706 14.9562 23.4498 13.8941C23.4498 12.9137 23.4498 11.9332 23.4498 10.9732ZM24.675 8.60389C26.2531 8.62431 27.5821 7.35793 27.5821 5.78517C27.6028 4.21241 26.3154 2.9256 24.7165 2.9256C23.1176 2.90518 21.8094 4.17156 21.8094 5.74432C21.7886 7.29666 23.0761 8.58346 24.675 8.60389Z" fill="#FCB542"/>
</svg>
