<svg xmlns="http://www.w3.org/2000/svg" width="45" height="41" fill="none" viewBox="0 0 45 41">
    <path fill="#FCB542" d="M11.938 26.829c.035-1.097.654-1.812 1.402-2.47 1.228-1.085 2.431-2.205 3.682-3.348-.175-.173-.316-.334-.456-.473C12.733 16.752 8.9 12.955 5.054 9.17c-1.6-1.57-2.138-3.428-1.32-5.482.83-2.101 2.442-3.452 4.815-3.66 1.46-.126 2.758.37 3.822 1.374.794.762 1.577 1.547 2.36 2.32l9.76 9.638c.14.138.28.265.443.415.69-.634 1.368-1.246 2.034-1.846 3.985-3.636 7.97-7.272 11.967-10.896 1.532-1.397 3.507-1.374 4.956.058 1.449 1.42 1.484 3.381.07 4.893-7.97 8.542-15.953 17.083-23.924 25.624-.654.704-1.449 1.062-2.466 1.039.444 2.62-.982 4.236-2.875 5.61-1.25.9-2.618 1.58-4.102 2.008-2.828.82-5.692 1.015-8.567.277-.514-.139-1.028-.358-1.472-.67-.807-.554-.725-1.639.187-1.996 2.232-.9 3.424-2.597 4.102-4.779.49-1.581 1.11-3.105 2.232-4.397 1.25-1.466 2.793-2.217 4.862-1.87zM42.71 3.64c-.117-.288-.175-.519-.303-.692-.55-.774-1.24-.797-2.01-.093-8.556 7.803-17.11 15.606-25.677 23.397-.445.404-.491.784-.246 1.27.608 1.13 1.484 2.008 2.63 2.608.537.288.935.196 1.367-.266 4.932-5.31 9.876-10.584 14.82-15.882 2.945-3.15 5.878-6.29 8.812-9.441.257-.266.409-.6.607-.9zm-23.9 15.732c1.461-1.327 2.91-2.654 4.254-3.89-2.84-2.804-5.621-5.574-8.344-8.264-1.344 1.34-2.735 2.713-4.103 4.052 2.688 2.655 5.412 5.355 8.193 8.102zM4.201 38.475c.012.08.035.15.047.23 1.227-.069 2.466-.057 3.681-.219 2.478-.334 4.687-1.304 6.51-3.058.842-.808 1.064-1.755.655-2.84-.351-.935-.9-1.743-1.66-2.389-1.998-1.72-3.74-1.5-5.096.739-.549.912-.935 1.939-1.297 2.943-.62 1.708-1.356 3.37-2.84 4.594zm8.777-33.15c-.771-.773-1.52-1.58-2.337-2.32-1.005-.9-2.49-.9-3.518-.046-1.39 1.131-1.87 2.586-1.017 3.775C6.854 7.772 7.86 8.65 8.701 9.55c1.484-1.454 2.863-2.828 4.277-4.224zM26.253 30.12c.515-.59 1.006-1.155 1.52-1.755 1.613 1.604 3.179 3.186 4.733 4.732 1.473-1.454 2.875-2.828 4.29-4.224-1.672-1.628-3.39-3.29-5.131-4.986.572-.67 1.063-1.236 1.589-1.836.175.162.339.3.48.45 1.577 1.559 3.073 3.22 4.756 4.652 2.033 1.743 2.98 4.074 3.95 6.406.666 1.593 1.204 3.232 1.812 4.848.222.577.058 1.027-.351 1.466-.432.45-.9.761-1.543.542-3.108-1.073-6.24-2.112-9.127-3.728-.421-.231-.819-.52-1.157-.854-1.952-1.882-3.869-3.786-5.82-5.714zm15.077 7.56l.175-.174c-.958-2.285-1.916-4.559-2.863-6.81l-4.266 4.144c2.35.947 4.652 1.893 6.954 2.84z"/>
</svg>
