<svg xmlns="http://www.w3.org/2000/svg" width="40" height="40" fill="none" viewBox="0 0 40 40">
    <circle cx="20" cy="20" r="20" fill="#FCB542"/>
    <mask id="3c40gol4ta" fill="#fff">
        <path d="M30.357 22.238H8.93c-1.85 0-1.106.004-2.956 0-1.12 0-1.975-.762-1.975-1.747 0-.984.855-1.742 1.975-1.742h24.372c-.111-.113-.184-.187-.26-.256-2.01-1.821-4.024-3.637-6.038-5.457-.831-.75-.855-1.817-.063-2.535.758-.688 1.985-.667 2.792.06l9.186 8.289c.14.126.285.24.425.361.797.67.817 1.834.044 2.522-1.039.927-2.082 1.85-3.115 2.783-2.208 1.986-4.41 3.98-6.613 5.97-.753.68-1.98.684-2.724.018-.763-.684-.773-1.794-.02-2.478 2.034-1.842 4.073-3.676 6.106-5.518.082-.065.15-.135.29-.27z"/>
    </mask>
    <path fill="#000" d="M30.357 22.238l.694.72 1.784-1.72h-2.478v1zm-24.382 0l.003-1h-.003v1zm24.372-3.489v1h2.382l-1.668-1.7-.714.7zm-.26-.256l-.672.74.002.002.67-.742zm-6.038-5.457l.67-.742v-.001l-.67.743zm-.063-2.535l.672.74-.672-.74zm2.792.06l-.67.743.67-.742zm9.186 8.289l.67-.743-.67.743zm.425.361l-.656.754.006.006.007.005.643-.765zm.044 2.522l-.665-.747h-.001l.666.747zm-3.115 2.783l.668.743h.001l-.67-.743zm-6.613 5.97l.67.743-.67-.742zm-2.724.018l-.667.745.667-.745zm-.02-2.478l-.67-.741h-.001l.672.74zm6.106-5.518l-.623-.783-.025.02-.024.022.672.74zm.29-1.27H27.116v2H30.357v-2zm-3.241 0H13.828v2H27.116v-2zm-13.288 0H11.151h-.007-.003-.003-.003-.003-.005-.002-.008-.002-.001-.002-.001-.001-.001-.001-.003v2H11.656v-2h-.001-.005-.001-.002-.001-.002-.002-.002-.002-.002-.005-.003-.012-.007H8.931v2H11.655v-2h-.001-.003-.004-.006-.002-.002-.002-.002-.002-.002-.002-.003-.002-.005-.003-.011-.016-.021-.019-.004-.008H11.228h-.004-.004-.004-.004-.026-.007-.007-.003H11.148h-.008-.005-.002H11.124h-.003-.002-.002-.001-.002-.001-.001-.002-.002-.002-.001v2H13.829v-2zm-4.897 0c-1.858 0-1.103.004-2.953 0l-.005 2c1.85.004 1.118 0 2.958 0v-2zm-2.956 0c-.685 0-.975-.425-.975-.747H3c0 1.647 1.42 2.747 2.975 2.747v-2zM5 20.49c0-.318.287-.742.975-.742v-2C4.423 17.75 3 18.842 3 20.491h2zm.975-.742H20.518v-2H5.975v2zm14.543 0H30.009v-2H20.518v2zm9.49 0H30.348v-2h-.008-.002-.001-.001-.001-.001-.001-.001-.005-.002-.001-.001-.001-.001-.001-.005-.001-.001-.001-.001-.003-.002-.001-.001-.005-.001-.001-.003-.002-.001-.003-.002-.001-.003-.001-.001-.003-.001-.001-.003-.001-.001-.003-.001-.003-.001-.003-.001-.003-.001-.003-.001-.003-.003-.001-.003-.003-.003-.003-.003-.003-.003-.003-.005-.003-.001-.001-.005-.005-.001-.001-.002-.007-.001-.001-.001-.001-.001-.001-.001-.001-.001-.001-.001-.001-.001-.001-.001-.008-.001-.001-.001-.005-.001-.001-.004-.001-.003-.004-.001-.002-.001-.003-.003-.003-.002-.001-.002-.001-.001-.003-.002-.001-.001-.003-.001-.003-.001-.002-.001-.001-.002-.001-.001-.001-.002-.001-.001-.001-.002-.001-.001-.001-.003-.001-.001-.001-.003-.001-.001-.001-.001-.005-.001-.001-.001-.004-.001-.001-.001-.001-.001-.001-.005-.001-.001-.001-.001-.001-.001-.001-.001-.008-.001-.001-.001-.001-.001-.001-.001-.001-.001-.001-.001H30.014h-.001-.001-.001-.001-.001-.001v2zm1.053-1.7c-.104-.106-.2-.205-.305-.3l-1.34 1.486c.05.045.1.095.217.215l1.428-1.4zm-.303-.298c-2.01-1.82-4.026-3.638-6.039-5.457l-1.34 1.483c2.014 1.822 4.027 3.637 6.036 5.457l1.343-1.483zm-6.04-5.458c-.241-.218-.306-.423-.31-.56-.003-.132.047-.308.25-.492l-1.344-1.48c-.59.534-.924 1.251-.905 2.02.018.763.38 1.466.97 1.997l1.34-1.485zm-.06-1.052c.349-.316.995-.347 1.45.063l1.34-1.485c-1.159-1.044-2.966-1.118-4.134-.059l1.344 1.481zm1.45.063l4.593 4.144c1.531 1.382 3.062 2.764 4.594 4.144l1.339-1.485-4.593-4.144-4.594-4.144-1.339 1.485zm9.187 8.288c.121.11.378.321.438.373l1.313-1.508c-.22-.192-.254-.207-.412-.35l-1.34 1.485zm.45.384c.336.283.336.731.023 1.01l1.33 1.494c1.232-1.098 1.194-2.975-.065-4.034l-1.288 1.53zm.022 1.01c-1.034.924-2.084 1.853-3.12 2.787l1.34 1.485c1.032-.93 2.069-1.848 3.112-2.78l-1.332-1.491zm-3.118 2.786c-2.209 1.987-4.413 3.983-6.614 5.973l1.34 1.483c2.204-1.99 4.405-3.984 6.611-5.969l-1.337-1.487zm-6.613 5.972c-.38.342-1.03.336-1.388.015l-1.334 1.49c1.13 1.012 2.933.997 4.06-.02l-1.338-1.485zm-1.388.015c-.328-.294-.321-.714-.014-.992l-1.344-1.482c-1.2 1.09-1.174 2.89.024 3.964l1.334-1.49zm-.015-.992c1.016-.92 2.033-1.839 3.051-2.758 1.018-.919 2.037-1.838 3.054-2.76l-1.343-1.482c-1.015.92-2.033 1.839-3.05 2.758-1.019.919-2.037 1.838-3.055 2.76l1.343 1.482zm6.056-5.476c.132-.105.254-.23.362-.333l-1.388-1.44c-.173.166-.186.181-.219.207l1.245 1.566z" mask="url(#3c40gol4ta)"/>
</svg>
