<svg xmlns="http://www.w3.org/2000/svg" width="42" height="42" fill="none" viewBox="0 0 42 42">
    <path fill="#FCB542" d="M29.689 42c-.236-.465-.672-.93-.709-1.412-.29-4.218-3.76-7.506-8.03-7.488-4.216.017-7.65 3.306-7.94 7.488-.037.483-.455.947-.71 1.412h-.726c-.582-.34-.745-.84-.727-1.501.164-4.95 4.379-9.222 9.448-9.508 5.215-.304 9.866 3.324 10.647 8.275.073.41.091.822.146 1.233.09.661-.127 1.161-.709 1.501h-.69zM.018 31.152c.509-1.466 1.29-2.753 2.835-3.36 2.07-.823 3.888-.322 5.469 1.233.89-.518 1.762-1.037 2.634-1.555.654-.393 1.236-.357 1.635.304.364.625.091 1.144-.49 1.501-.236.143-.454.286-.69.411-1.163.661-2.2 1.162-2.126 2.967.09 2.127-1.98 3.789-4.143 3.985-2.144.197-4.106-1.054-4.87-3.074C.2 33.35.092 33.135 0 32.921c.018-.59.018-1.18.018-1.77zm4.724 3.36c1.4-.018 2.508-1.144 2.508-2.502-.019-1.377-1.163-2.467-2.544-2.467-1.4.018-2.508 1.144-2.508 2.502.019 1.376 1.163 2.484 2.544 2.467zM.018 12.636C.6 10.92 1.618 9.598 3.47 9.097c3.38-.893 6.705 2.02 5.76 5.827.818.464 1.672.929 2.526 1.411.854.483 1.108 1.037.763 1.627-.364.643-.981.715-1.872.196-.835-.464-1.671-.947-2.525-1.43-1.272 1.073-2.671 1.645-4.343 1.305-2.017-.393-3.143-1.77-3.76-3.628v-1.77zm4.724 3.378c1.4-.018 2.508-1.144 2.508-2.502-.019-1.377-1.163-2.467-2.544-2.467-1.4.018-2.507 1.144-2.507 2.502.018 1.377 1.162 2.467 2.543 2.467zM20.986 29.186c-3.562 0-6.487-2.896-6.505-6.399 0-3.538 2.962-6.434 6.56-6.416 3.56.018 6.468 2.931 6.45 6.434.018 3.503-2.944 6.38-6.505 6.38zm4.36-6.417c0-2.323-1.944-4.235-4.306-4.253-2.398-.018-4.379 1.912-4.379 4.271 0 2.324 1.944 4.236 4.306 4.254 2.399.018 4.38-1.912 4.38-4.272zM33.94 16.782c-.89.5-1.762 1.001-2.652 1.502-.764.41-1.436.303-1.745-.25-.327-.573-.072-1.18.654-1.61.182-.106.364-.214.546-.303 1.29-.536 2.107-1.144 1.907-2.877-.236-2.038 1.6-3.86 3.707-4.308 2.053-.429 4.179.59 5.142 2.449.963 1.894.508 4.182-1.108 5.576-1.6 1.376-3.925 1.52-5.688.358-.236-.143-.472-.322-.763-.537zm5.869-3.27c0-1.377-1.145-2.485-2.526-2.485-1.399 0-2.525 1.126-2.525 2.485 0 1.376 1.145 2.484 2.525 2.484 1.4.018 2.526-1.108 2.526-2.484zM33.686 29.025c1.58-1.52 3.325-2.038 5.36-1.27 2.271.859 3.434 3.307 2.744 5.613-.654 2.198-2.998 3.646-5.27 3.235-2.434-.43-4.142-2.52-3.906-4.897.055-.608-.072-.912-.6-1.18-.69-.357-1.344-.786-2.016-1.197-.745-.465-.963-1.073-.582-1.609.49-.697 1.09-.572 1.745-.179.817.5 1.653.965 2.525 1.484zm3.58.518c-1.4.018-2.508 1.144-2.508 2.502.018 1.376 1.163 2.484 2.544 2.467 1.399-.018 2.507-1.144 2.507-2.503 0-1.376-1.144-2.466-2.543-2.466zM19.914 9.187C17.079 7.9 15.88 6.005 16.407 3.682c.49-2.198 2.398-3.7 4.67-3.682 2.252.018 4.124 1.59 4.56 3.825.454 2.27-.818 4.2-3.543 5.344v2.537c0 .966-.363 1.448-1.072 1.448-.709.018-1.09-.482-1.108-1.412V9.187zm1.072-2.074c1.38.018 2.543-1.09 2.543-2.466.018-1.376-1.108-2.502-2.507-2.502-1.4-.018-2.544 1.09-2.544 2.466-.018 1.359 1.109 2.484 2.508 2.502z"/>
</svg>
