<svg xmlns="http://www.w3.org/2000/svg" width="29" height="45" fill="none" viewBox="0 0 29 45">
    <path fill="#FCB542" d="M15.642 0c.616.106 1.241.194 1.849.326 5.915 1.303 10.307 5.795 11.284 11.722.818 4.941-.599 9.248-4.146 12.798-1.206 1.206-2.306 2.474-2.852 4.104-.317.933-.58 1.92-.642 2.897-.106 1.718-.027 3.453-.027 5.056.44.282.863.467 1.18.775.176.176.246.537.237.81-.008.74-.501 1.136-1.566 1.286-.326 1.41-1.03 2.616-2.122 3.593-3.582 3.189-9.382 1.48-10.659-3.153-.088-.308-.184-.484-.528-.572-.545-.132-.889-.626-.915-1.163-.027-.563.29-1.074.81-1.286.105-.044.22-.079.36-.123-.026-2.924.309-5.892-1.03-8.666-.624-1.295-1.408-2.458-2.429-3.47C2.211 22.732.758 20.107.222 17.007-1.204 8.746 4.438 1.532 11.805.255 12.35.16 12.905.088 13.45 0h2.191zm2.667 31.812c.335-1.295.572-2.554.986-3.743.722-2.043 2.06-3.673 3.574-5.196 2.94-2.968 4.066-6.58 3.247-10.666-1.223-6.139-6.671-10.084-12.894-9.494C6.436 3.364 1.48 9.793 2.88 16.857c.484 2.449 1.672 4.5 3.459 6.236 1.47 1.427 2.588 3.109 3.265 5.047.414 1.18.678 2.413 1.013 3.654h2.57v-.466c0-2.695.008-5.39-.01-8.085 0-.256-.087-.546-.228-.767-1.584-2.395-3.177-4.782-4.762-7.169-.457-.687-.317-1.48.317-1.893.625-.423 1.4-.238 1.875.431.211.308.422.625.634.942.906-.449 1.777-.863 2.623-1.32.598-.326 1.144-.326 1.742 0 .854.466 1.743.88 2.632 1.33.238-.353.449-.688.678-1.005.343-.484.889-.687 1.426-.537.924.255 1.258 1.25.695 2.114-1.576 2.378-3.169 4.747-4.735 7.134-.132.202-.23.475-.23.722-.017 2.721-.008 5.452-.008 8.173 0 .141.009.282.018.44.862-.026 1.707-.026 2.455-.026zm.115 5.276v-2.599H10.59v2.599h7.834zm-7.596 2.668c.457 1.55 2.086 2.651 3.802 2.616 1.602-.035 3.213-1.215 3.547-2.616h-7.35zm1.646-22.758c.677 1.022 1.338 2.008 2.024 3.039.704-1.057 1.356-2.035 2.025-3.048-.634-.317-1.233-.625-1.84-.907-.106-.053-.29-.044-.396.009-.59.282-1.17.581-1.813.907z"/>
</svg>
