<svg xmlns="http://www.w3.org/2000/svg" width="38" height="38" fill="none" viewBox="0 0 38 38">
    <path fill="#FCB542" d="M38 23.939v13.296c0 .366-.4.765-.76.765h-6.77c-.328 0-.736-.408-.736-.736V10.652c0-.319.408-.727.722-.727h6.817c.318 0 .727.408.727.722v13.292zm-1.667-12.357c-.076-.01-.129-.019-.186-.019-1.51 0-3.021.005-4.537-.004-.213 0-.223.1-.223.26 0 8.088 0 16.17.005 24.258 0 .08.01.166.014.247h4.927V11.582zM19.82 27.24v-9.95c0-.365.394-.769.76-.769h6.77c.336 0 .735.399.735.74V37.25c0 .346-.399.745-.755.745h-6.77c-.327 0-.74-.413-.74-.74V27.238zm6.603 9.088v-18.14h-4.927v18.14h4.927zM30.176 1.72l-.931-.044c-.703-.028-1.406-.047-2.11-.095-.456-.028-.722-.375-.679-.821.034-.404.414-.755.808-.755 1.577 0 3.15.004 4.727-.005.18 0 .299.066.437.176.328.266.437.58.423 1.006-.038 1.359-.024 2.722-.038 4.084-.005.252-.034.509-.086.75-.076.371-.361.594-.703.585-.366-.005-.722-.266-.784-.608-.043-.233-.047-.47-.047-.708-.005-.688 0-1.372 0-2.127-.095.08-.148.123-.195.166C29.326 5 27.63 6.648 25.796 8.15c-3.61 2.944-7.52 5.395-11.82 7.204-3.482 1.467-7.097 2.412-10.869 2.726-.77.061-1.549.071-2.323.066-.432 0-.774-.394-.779-.802-.01-.404.285-.732.741-.77.955-.08 1.91-.118 2.865-.209 3.12-.294 6.118-1.073 9.021-2.25 6.029-2.441 11.283-6.036 15.853-10.647.513-.518 1.016-1.04 1.525-1.563.047-.047.09-.104.166-.185zM9.915 29.732V22.23c0-.366.394-.76.764-.76h6.746c.347 0 .755.409.755.75v15.026c0 .328-.408.745-.736.745h-6.793c-.333 0-.736-.403-.736-.736v-7.522zm6.593 6.596V23.146h-4.926v13.182h4.926zM8.261 31.418v5.841c0 .328-.408.741-.736.741H.736C.41 38 0 37.592 0 37.264V25.515c0-.313.409-.726.722-.726h6.812c.319 0 .727.408.727.726v5.903zm-6.589-4.967v9.868h4.912V26.45H1.672z"/>
</svg>
