<svg xmlns="http://www.w3.org/2000/svg" width="35" height="39" fill="none" viewBox="0 0 35 39">
    <path fill="#FCB542" d="M4.407 0h12.64c3.466 1.252 5.046 3.728 4.74 7.483-.11 1.196.056 2.42-.027 3.616-.083 1.196.25 1.947 1.303 2.615 1.552.974 2.994 2.142 4.38 3.366 1.58 1.39 2.855 3.032 2.827 5.34 0 2.56-.527 5.258.194 7.595.72 2.364 2.633 4.395 4.075 6.537.61.918.665 1.67-.139 2.448h-1.109c-1.69-2.531-3.381-5.035-5.045-7.594-.277-.417-.388-1.03-.388-1.558-.027-2.42 0-4.812-.027-7.232 0-.612-.111-1.363-.444-1.836-1.386-2.031-3.382-3.422-5.6-4.98 0 .723.056 1.196 0 1.614-.249 2.28.056 4.284 2.357 5.48.72.361 1.053 1.14.499 1.864-.638.806-1.358.5-2.024-.028-1.802-1.503-3.603-2.949-5.377-4.423-.5-.418-1.081-.807-1.497-.084-.194.306-.028 1.057.25 1.391 1.44 1.753 2.91 3.477 4.462 5.09.998 1.03 1.525 2.143 1.33 3.59-.304 2.336.333 4.394 1.969 6.091.804.835.86 1.641.166 2.56h-1.109c-.998-1.225-1.995-2.449-2.827-3.478-1.248.362-2.412.918-3.576.974-3.604.111-7.235.083-10.838.028-2.828-.056-4.907-2.003-5.35-4.813-.028-.25-.167-.5-.222-.779V5.563C.416 2.865 1.885 1.001 4.407 0zM2.606 26.76c0 1.614-.111 3.06.027 4.451.139 1.586 1.165 2.726 2.606 2.754 3.853.083 7.678.056 11.531-.028 1.192-.028 2.08-.862 2.384-2.003.305-1.168.61-2.392-.416-3.505-1.69-1.836-3.326-3.7-4.906-5.619-1.081-1.307-.942-3.087.166-4.311 1.137-1.224 2.828-1.391 4.242-.473.305.194.637.417 1.108.75 0-4.506.056-8.762-.027-13.018-.056-1.947-1.58-3.254-3.576-3.282-3.077-.028-6.126-.028-9.203 0-2.91 0-4.02 1.14-4.02 4.145V24.34H9.98c.36 0 .832-.111 1.081.084.416.306.72.779 1.081 1.196-.471.39-.942 1.085-1.441 1.085-2.634.111-5.295.055-8.094.055z"/>
    <path fill="#FCB542" d="M8.288 12.935c-2.633-2.726-2.938-5.508-.72-7.622 1.884-1.808 4.878-1.752 6.652.14 2.024 2.141 1.691 5.006-.942 7.538.582.278 1.247.473 1.663.89.333.334.582 1.14.416 1.474-.194.362-1.054.723-1.414.556-2.522-1.112-4.85-1-7.124.668-.305.223-1.22-.056-1.58-.417-.194-.195 0-1.224.333-1.474.804-.696 1.801-1.197 2.716-1.753zm2.495-1.836c1.192.028 2.273-1.03 2.328-2.253.084-1.252-1.025-2.42-2.273-2.448C9.646 6.37 8.565 7.399 8.51 8.623c-.028 1.28 1.026 2.448 2.273 2.476zM10.894 32.24c-.887-.083-1.552-.612-1.663-1.697-.111-1 .72-1.891 1.69-1.891 1.082 0 1.691.584 1.802 1.669.111 1.001-.693 1.864-1.83 1.92z"/>
</svg>
