<svg xmlns="http://www.w3.org/2000/svg" width="42" height="42" fill="none" viewBox="0 0 42 42">
    <path fill="#FCB542" d="M0 19.88c.554-2.466 2.38-3.799 4.433-4.932.164-.087.329-.174.502-.269-.251-.787-.485-1.549-.754-2.397 2.251.554 4.416 1.1 6.65 1.653-1.49 1.74-2.944 3.436-4.46 5.201-.276-.865-.536-1.661-.822-2.527-1.359.745-2.657 1.472-3.35 2.9-.39.796-.286 1.61.251 2.276.493.606 1.065 1.185 1.705 1.627 1.819 1.272 3.896 1.947 6.026 2.51.597.155 1.203.277 1.81.432.103.026.25.148.268.251.095.598.155 1.195.233 1.861-.38-.07-.727-.13-1.064-.208-2.546-.528-5.03-1.237-7.316-2.527-.675-.38-1.316-.83-1.922-1.307C1.065 23.542.294 22.416 0 21.006V19.88zM30.18 19.699h2.328c-1.117 1.817-2.199 3.566-3.324 5.383-1.117-1.8-2.19-3.557-3.316-5.374h2.311c-.034-.753-.06-1.454-.104-2.147-.233-3.332-.761-6.603-1.878-9.753-.459-1.307-1.004-2.58-1.827-3.696-.415-.562-.892-1.099-1.437-1.532-.97-.779-1.974-.744-2.978-.026-.77.554-1.333 1.307-1.818 2.112-1.325 2.216-2.06 4.647-2.563 7.157-1.082 5.383-1.168 10.801-.372 16.236.398 2.718 1.022 5.375 2.19 7.867.347.736.78 1.437 1.221 2.13.208.337.494.64.78.925 1.367 1.368 2.726 1.385 4.103.018 1.151-1.134 1.878-2.553 2.424-4.042.476-1.29.84-2.631 1.22-3.955.208-.71.65-1.065 1.264-.926.58.13.884.666.728 1.35-.59 2.536-1.386 4.994-2.788 7.21-.563.89-1.238 1.695-2.078 2.344-1.74 1.333-3.748 1.36-5.514.078-.91-.657-1.61-1.514-2.208-2.458-1.48-2.319-2.32-4.872-2.866-7.52-1.437-7.062-1.402-14.124.234-21.16.528-2.277 1.316-4.466 2.571-6.466.624-.995 1.36-1.895 2.33-2.579 1.679-1.177 3.6-1.168 5.271.035 1.23.891 2.087 2.094 2.788 3.41 1.35 2.527 2.147 5.253 2.563 8.066.337 2.285.484 4.604.71 6.906.017.121.017.234.034.407z"/>
    <path fill="#FCB542" d="M15.704 26.917c.399.034.736.07 1.083.104 4.951.398 9.869.164 14.708-1.004 2.052-.494 4.052-1.134 5.844-2.268.744-.467 1.454-1.055 2.026-1.713.891-1.021.84-2.155 0-3.228-.667-.857-1.55-1.446-2.494-1.965-1.575-.857-3.263-1.428-4.995-1.878-.407-.104-.718-.303-.84-.718-.207-.71.416-1.428 1.143-1.247 2.693.675 5.307 1.567 7.515 3.324 1.082.856 1.93 1.895 2.216 3.297.268 1.298-.078 2.458-.84 3.505-1.065 1.463-2.554 2.389-4.155 3.142-2.77 1.298-5.731 1.982-8.744 2.423-3.8.563-7.627.632-11.454.338-.104-.009-.199-.035-.303-.026-.311.008-.45-.113-.485-.45-.034-.528-.138-1.048-.225-1.636z"/>
</svg>
