<svg xmlns="http://www.w3.org/2000/svg" width="56" height="35" fill="none" viewBox="0 0 56 35">
    <path fill="#FCB542" d="M41.08 0c.83.42 1.742.747 2.473 1.307.946.716 1.26 1.79 1.26 2.926 0 8.854.017 17.709-.016 26.564 0 2.38-1.842 4.139-4.248 4.201-2.34.063-4.15-1.556-4.448-3.937-.017-.187-.183-.467-.349-.513-3.319-.934-6.655-1.837-10.024-2.755-.033.451-.033.84-.1 1.214-.448 2.35-2.837 3.781-5.327 3.143-2.29-.575-4.547-1.229-6.82-1.851-2.573-.7-4.166-3.657-2.108-6.412-.88-.249-1.726-.482-2.623-.731-.116.358-.199.638-.298.934-.68 1.851-2.689 2.987-4.764 2.707-2.04-.28-3.65-1.945-3.667-3.89-.033-3.517-.017-7.018-.017-10.535.017-2.132 1.56-3.844 3.684-4.124 2.241-.296 4.25.965 4.88 3.08.05.141.066.297.116.514.265-.046.498-.093.73-.155 8.614-2.35 17.227-4.7 25.84-7.034.581-.156.797-.374.863-.98C36.3 2.023 37.296.887 38.972.28l.747-.28h1.36zm-5.012 28.167V6.832c-9.145 2.49-18.223 4.98-27.35 7.47 0 1.913.032 3.796-.017 5.68-.017.59.232.777.78.933 6.555 1.774 13.11 3.58 19.65 5.369 2.306.638 4.597 1.26 6.937 1.883zm2.522-10.66V30.36c0 .264-.016.513.017.778.116.856.913 1.51 1.809 1.51.913.015 1.693-.623 1.842-1.479.05-.327.05-.67.05-1.011V4.824c0-.342 0-.669-.05-1.011-.1-.7-.548-1.168-1.278-1.385-1.294-.39-2.39.466-2.406 1.883.016 4.42.033 8.808.016 13.196zm-32.362.015v-4.87c0-1.339-.697-2.101-1.842-2.117-1.162 0-1.86.778-1.86 2.085v9.836c0 1.26.714 2.023 1.843 2.038 1.128.016 1.859-.762 1.875-2.007 0-1.665-.016-3.315-.016-4.964zm15.119 12.434c.946 0 1.66-.529 1.825-1.291.166-.716-.215-1.556-.995-1.774-2.44-.716-4.896-1.385-7.37-1.992-.846-.218-1.725.467-1.874 1.276-.166.902.315 1.618 1.36 1.914 2.125.607 4.266 1.183 6.407 1.758.265.063.514.078.647.11zM51.685 18.674c-.963 0-1.925.016-2.888 0-.93-.016-1.444-.436-1.46-1.152-.017-.715.497-1.167 1.41-1.182 1.925-.016 3.867-.016 5.792 0 .946.015 1.444.436 1.46 1.151.017.732-.514 1.167-1.51 1.183-.929.016-1.875 0-2.804 0zM48.365 12.916c-.282-.218-.796-.451-.896-.778-.116-.373-.05-1.043.233-1.245 1.709-1.292 3.468-2.52 5.26-3.72.532-.357 1.13-.186 1.544.312.398.498.415 1.09-.083 1.463-1.743 1.291-3.552 2.52-5.327 3.75-.15.11-.365.125-.73.218zM54.772 26.61c0 1.074-1.063 1.712-1.826 1.214-1.792-1.182-3.552-2.427-5.261-3.703-.531-.39-.515-1.027-.05-1.525.482-.53 1.096-.576 1.693-.172 1.195.825 2.373 1.666 3.568 2.49.448.311.913.592 1.311.934.266.265.432.607.565.762z"/>
</svg>
