<svg xmlns="http://www.w3.org/2000/svg" width="29" height="14" fill="none" viewBox="0 0 29 14">
    <path fill="#fff" fill-opacity=".3" d="M3.139 7.915c.361.342.726.68 1.083 1.022 1.233 1.178 2.463 2.355 3.696 3.53.4.381.427.912.062 1.27-.361.355-.93.349-1.333-.03-.674-.637-1.345-1.28-2.015-1.92C3.194 10.417 1.757 9.043.32 7.673c-.424-.405-.424-.92-.007-1.317C2.434 4.332 4.552 2.308 6.674.285c.271-.26.59-.349.952-.24.368.11.57.369.622.727.041.302-.087.548-.31.757-.67.637-1.337 1.274-2.003 1.91-.89.85-1.775 1.7-2.664 2.545-.035.033-.07.073-.129.133.087.003.15.01.209.01h24.415c.26 0 .521-.02.76.11.362.192.543.58.442.955-.111.424-.452.67-.948.673-1.014.004-2.025 0-3.04 0H3.157c-.003.017-.01.033-.017.05z"/>
</svg>
