<svg xmlns="http://www.w3.org/2000/svg" width="29" height="14" fill="none" viewBox="0 0 29 14">
    <path fill="#FCB542" d="M25.857 7.915c-.361.342-.726.68-1.084 1.022-1.233 1.178-2.462 2.355-3.695 3.53-.4.381-.427.912-.063 1.27.362.355.931.349 1.334-.03.674-.637 1.344-1.28 2.014-1.92l4.314-4.114c.424-.405.424-.92.007-1.317-2.122-2.024-4.24-4.048-6.363-6.071-.27-.26-.59-.349-.951-.24-.369.11-.57.369-.622.727-.042.302.087.548.31.757.67.637 1.336 1.274 2.003 1.91.89.85 1.775 1.7 2.664 2.545.035.033.07.073.128.133-.087.003-.149.01-.208.01H1.229c-.26 0-.52-.02-.76.11-.361.192-.542.58-.441.955.11.424.451.67.948.673 1.014.004 2.025 0 3.039 0h21.824c.004.017.01.033.018.05z"/>
</svg>
